<svg id="a4f527b3-9c7c-4375-92b4-02cd734ec458" data-name="openai-horizontal" xmlns="http://www.w3.org/2000/svg" xmlns:xlink="http://www.w3.org/1999/xlink" viewBox="0 0 79.50807 25.68723"><defs><filter id="a4087972-a44d-483a-9ddb-557a02fc45c6" x="12.54168" y="-8202.99114" width="3.4336" height="32766" filterUnits="userSpaceOnUse" color-interpolation-filters="sRGB"><feFlood flood-color="#fff" result="bg"/><feBlend in="SourceGraphic" in2="bg"/></filter><mask id="beb1399f-4871-447c-99cd-287b76095b9e" x="12.54168" y="-8202.99114" width="3.4336" height="32766" maskUnits="userSpaceOnUse"><g style="filter:url(#a4087972-a44d-483a-9ddb-557a02fc45c6)"/></mask><linearGradient id="b70cde70-9897-4b6a-a9ec-6708ff1e5ab2" x1="14.25848" y1="35.09531" x2="14.25848" y2="19.40467" gradientTransform="matrix(1, 0, 0, -1, 0, 23.98227)" gradientUnits="userSpaceOnUse"><stop offset="0" stop-color="#fff"/><stop offset="1"/></linearGradient><filter id="ac72f635-335b-4513-836f-e009fb520590" x="12.54168" y="2.38859" width="3.4336" height="1.8684" filterUnits="userSpaceOnUse" color-interpolation-filters="sRGB"><feFlood flood-color="#fff" result="bg"/><feBlend in="SourceGraphic" in2="bg"/></filter><mask id="e331cd6e-0221-41d4-ae98-46625ea01b18" x="12.54168" y="2.38859" width="3.4336" height="1.8684" maskUnits="userSpaceOnUse"><g style="mask:url(#beb1399f-4871-447c-99cd-287b76095b9e);filter:url(#ac72f635-335b-4513-836f-e009fb520590)"><rect x="12.54168" y="2.38859" width="3.4336" height="1.8684" style="mix-blend-mode:multiply;fill:url(#b70cde70-9897-4b6a-a9ec-6708ff1e5ab2)"/></g></mask><linearGradient id="ac469d29-1409-4a07-8995-e4b25ab16c71" x1="14.25848" y1="35.09531" x2="14.25848" y2="19.40467" gradientTransform="matrix(1, 0, 0, -1, 0, 23.98227)" gradientUnits="userSpaceOnUse"><stop offset="0" stop-color="#fff"/><stop offset="1" stop-color="#fff"/></linearGradient><filter id="a4c60b9e-e0ef-4f7c-839b-05ebd6e19338" x="8.13008" y="-8202.99114" width="5.86496" height="32766" filterUnits="userSpaceOnUse" color-interpolation-filters="sRGB"><feFlood flood-color="#fff" result="bg"/><feBlend in="SourceGraphic" in2="bg"/></filter><mask id="afcd95b3-2633-4912-9a3c-6fc181469b5b" x="8.13008" y="-8202.99114" width="5.86496" height="32766" maskUnits="userSpaceOnUse"><g style="filter:url(#a4c60b9e-e0ef-4f7c-839b-05ebd6e19338)"/></mask><linearGradient id="a8817d55-9902-4362-8dcb-1396a1771e82" x1="11.06256" y1="38.63898" x2="11.06256" y2="14.3574" xlink:href="#b70cde70-9897-4b6a-a9ec-6708ff1e5ab2"/><filter id="f3fcdc31-b2de-4d45-b5ba-ce5ac5b57f61" x="25.23344" y="-8202.99114" width="1.86865" height="32766" filterUnits="userSpaceOnUse" color-interpolation-filters="sRGB"><feFlood flood-color="#fff" result="bg"/><feBlend in="SourceGraphic" in2="bg"/></filter><mask id="a8f02e95-8eb0-419c-aac3-9161dac87e58" x="25.23344" y="-8202.99114" width="1.86865" height="32766" maskUnits="userSpaceOnUse"><g style="filter:url(#f3fcdc31-b2de-4d45-b5ba-ce5ac5b57f61)"/></mask><linearGradient id="a3548a0f-955c-4713-9c76-c2f1fb01624c" x1="40.60372" y1="8.75006" x2="24.91308" y2="8.75006" xlink:href="#b70cde70-9897-4b6a-a9ec-6708ff1e5ab2"/><filter id="b3f7ea84-0dd7-460a-8b44-7c7702514e2a" x="25.23344" y="13.51541" width="1.86865" height="3.4336" filterUnits="userSpaceOnUse" color-interpolation-filters="sRGB"><feFlood flood-color="#fff" result="bg"/><feBlend in="SourceGraphic" in2="bg"/></filter><mask id="b83624e2-643c-4f69-a1b7-a6d7cd5ae705" x="25.23344" y="13.51541" width="1.86865" height="3.4336" maskUnits="userSpaceOnUse"><g style="mask:url(#a8f02e95-8eb0-419c-aac3-9161dac87e58);filter:url(#b3f7ea84-0dd7-460a-8b44-7c7702514e2a)"><rect x="25.23344" y="13.51541" width="1.86865" height="3.4336" style="mix-blend-mode:multiply;fill:url(#a3548a0f-955c-4713-9c76-c2f1fb01624c)"/></g></mask><linearGradient id="fb4ccea3-a441-44a6-b0de-076754571244" x1="40.60372" y1="8.75006" x2="24.91308" y2="8.75006" xlink:href="#ac469d29-1409-4a07-8995-e4b25ab16c71"/><filter id="b1322c36-9403-48ba-8ba3-b027e9725cee" x="15.78619" y="-8202.99114" width="6.38476" height="32766" filterUnits="userSpaceOnUse" color-interpolation-filters="sRGB"><feFlood flood-color="#fff" result="bg"/><feBlend in="SourceGraphic" in2="bg"/></filter><mask id="a34b80f5-0f8f-4e6e-b367-fd61ac34d3ed" x="15.78619" y="-8202.99114" width="6.38476" height="32766" maskUnits="userSpaceOnUse"><g style="filter:url(#b1322c36-9403-48ba-8ba3-b027e9725cee)"/></mask><linearGradient id="ef160df9-132a-44d0-a179-b1fd1499b6b9" x1="-10.31555" y1="8.75006" x2="24.70608" y2="8.75006" xlink:href="#b70cde70-9897-4b6a-a9ec-6708ff1e5ab2"/><filter id="fd5c978b-5f7b-4ad3-96f2-e96c234b0841" x="15.78619" y="9.09296" width="6.38476" height="12.27851" filterUnits="userSpaceOnUse" color-interpolation-filters="sRGB"><feFlood flood-color="#fff" result="bg"/><feBlend in="SourceGraphic" in2="bg"/></filter><mask id="bd8b9869-8479-4b8e-bb15-6eed68eed7d2" x="15.78619" y="9.09296" width="6.38476" height="12.27851" maskUnits="userSpaceOnUse"><g style="mask:url(#a34b80f5-0f8f-4e6e-b367-fd61ac34d3ed);filter:url(#fd5c978b-5f7b-4ad3-96f2-e96c234b0841)"><rect x="15.78619" y="9.09296" width="6.38476" height="12.27851" style="mix-blend-mode:multiply;fill:url(#ef160df9-132a-44d0-a179-b1fd1499b6b9)"/></g></mask><linearGradient id="b2c2ff08-ae46-4f30-b6c3-7ee0b09c00e8" x1="-10.31555" y1="8.75006" x2="24.70608" y2="8.75006" xlink:href="#ac469d29-1409-4a07-8995-e4b25ab16c71"/><filter id="baf47e43-429e-4ef7-af3a-e5d6b02b73d2" x="21.69255" y="-8202.99114" width="4.07382" height="32766" filterUnits="userSpaceOnUse" color-interpolation-filters="sRGB"><feFlood flood-color="#fff" result="bg"/><feBlend in="SourceGraphic" in2="bg"/></filter><mask id="bca15cc1-d27c-4bc9-b3b1-af96205f4906" x="21.69255" y="-8202.99114" width="4.07382" height="32766" maskUnits="userSpaceOnUse"><g style="filter:url(#baf47e43-429e-4ef7-af3a-e5d6b02b73d2)"/></mask><linearGradient id="fa9db3b1-110b-49a9-9e6d-d4435ee38bb5" x1="44.14714" y1="5.54329" x2="19.86581" y2="5.54329" xlink:href="#b70cde70-9897-4b6a-a9ec-6708ff1e5ab2"/><filter id="ae7be6fc-c4d6-4278-aca5-96816786cee1" x="21.69255" y="15.5065" width="4.07382" height="5.86497" filterUnits="userSpaceOnUse" color-interpolation-filters="sRGB"><feFlood flood-color="#fff" result="bg"/><feBlend in="SourceGraphic" in2="bg"/></filter><mask id="b42aded4-5a23-44bd-bca3-073fd108bb24" x="21.69255" y="15.5065" width="4.07382" height="5.86497" maskUnits="userSpaceOnUse"><g style="mask:url(#bca15cc1-d27c-4bc9-b3b1-af96205f4906);filter:url(#ae7be6fc-c4d6-4278-aca5-96816786cee1)"><rect x="21.69255" y="15.5065" width="4.07382" height="5.86497" style="mix-blend-mode:multiply;fill:url(#fa9db3b1-110b-49a9-9e6d-d4435ee38bb5)"/></g></mask><linearGradient id="a2ac62a9-c850-4167-a501-b7ff8dd937e5" x1="44.14714" y1="5.54329" x2="19.86581" y2="5.54329" xlink:href="#ac469d29-1409-4a07-8995-e4b25ab16c71"/><linearGradient id="b003aa2d-630d-48a9-94f9-0f5dd8d4c4b4" x1="44.14714" y1="11.94598" x2="19.86581" y2="11.94598" xlink:href="#b70cde70-9897-4b6a-a9ec-6708ff1e5ab2"/><filter id="f6847f99-72c8-4a65-86aa-0656b3f16853" x="21.69255" y="9.10381" width="4.07382" height="5.86496" filterUnits="userSpaceOnUse" color-interpolation-filters="sRGB"><feFlood flood-color="#fff" result="bg"/><feBlend in="SourceGraphic" in2="bg"/></filter><mask id="b62366e9-8516-487c-acb8-6ecbde06eebe" x="21.69255" y="9.10381" width="4.07382" height="5.86496" maskUnits="userSpaceOnUse"><g style="mask:url(#bca15cc1-d27c-4bc9-b3b1-af96205f4906);filter:url(#f6847f99-72c8-4a65-86aa-0656b3f16853)"><rect x="21.69255" y="9.10381" width="4.07382" height="5.86496" style="mix-blend-mode:multiply;fill:url(#b003aa2d-630d-48a9-94f9-0f5dd8d4c4b4)"/></g></mask><linearGradient id="a7e4e258-8f95-436d-91fc-87ac5f77b5dd" x1="44.14714" y1="11.94598" x2="19.86581" y2="11.94598" xlink:href="#ac469d29-1409-4a07-8995-e4b25ab16c71"/><linearGradient id="a467d5d5-d767-4cc8-ac52-7a05b98a4009" x1="14.25848" y1="-17.59518" x2="14.25848" y2="-1.90454" xlink:href="#b70cde70-9897-4b6a-a9ec-6708ff1e5ab2"/><filter id="a566d0fa-2083-4589-9fe5-0a51e5db5d9a" x="12.54168" y="26.20718" width="3.4336" height="1.86865" filterUnits="userSpaceOnUse" color-interpolation-filters="sRGB"><feFlood flood-color="#fff" result="bg"/><feBlend in="SourceGraphic" in2="bg"/></filter><mask id="a62bbee0-7718-4338-878e-292d0cc21e30" x="12.54168" y="26.20718" width="3.4336" height="1.86865" maskUnits="userSpaceOnUse"><g style="mask:url(#beb1399f-4871-447c-99cd-287b76095b9e);filter:url(#a566d0fa-2083-4589-9fe5-0a51e5db5d9a)"><rect x="12.54168" y="26.20718" width="3.4336" height="1.86865" style="mix-blend-mode:multiply;fill:url(#a467d5d5-d767-4cc8-ac52-7a05b98a4009)"/></g></mask><linearGradient id="bd45392c-b684-42ce-b737-dfd4a682f72c" x1="14.25848" y1="-17.59518" x2="14.25848" y2="-1.90454" xlink:href="#ac469d29-1409-4a07-8995-e4b25ab16c71"/><filter id="a583b61b-c346-465d-8a11-08072f68c882" x="8.11897" y="-8202.99114" width="12.27875" height="32766" filterUnits="userSpaceOnUse" color-interpolation-filters="sRGB"><feFlood flood-color="#fff" result="bg"/><feBlend in="SourceGraphic" in2="bg"/></filter><mask id="a8db0871-29d1-4218-81b1-8c65cc70e769" x="8.11897" y="-8202.99114" width="12.27875" height="32766" maskUnits="userSpaceOnUse"><g style="filter:url(#a583b61b-c346-465d-8a11-08072f68c882)"/></mask><linearGradient id="ee80b00b-d3a3-49ef-ab5d-fd1c49245ea6" x1="14.25835" y1="33.3241" x2="14.25835" y2="-1.69755" xlink:href="#b70cde70-9897-4b6a-a9ec-6708ff1e5ab2"/><filter id="ac408234-446f-4184-96d4-3fcc367c7ccf" x="8.11897" y="16.75992" width="12.27875" height="6.38476" filterUnits="userSpaceOnUse" color-interpolation-filters="sRGB"><feFlood flood-color="#fff" result="bg"/><feBlend in="SourceGraphic" in2="bg"/></filter><mask id="a8b27460-4ebf-4f27-b257-deb608f09ba7" x="8.11897" y="16.75992" width="12.27875" height="6.38476" maskUnits="userSpaceOnUse"><g style="mask:url(#a8db0871-29d1-4218-81b1-8c65cc70e769);filter:url(#ac408234-446f-4184-96d4-3fcc367c7ccf)"><rect x="8.11897" y="16.75992" width="12.27875" height="6.38476" style="mix-blend-mode:multiply;fill:url(#ee80b00b-d3a3-49ef-ab5d-fd1c49245ea6)"/></g></mask><linearGradient id="ae611afd-d032-44e1-a074-9c27d8957361" x1="14.25835" y1="33.3241" x2="14.25835" y2="-1.69755" xlink:href="#ac469d29-1409-4a07-8995-e4b25ab16c71"/><linearGradient id="bbad4c78-05f0-4f55-94a9-43c79fe2a901" x1="14.25835" y1="-15.82377" x2="14.25835" y2="19.19761" xlink:href="#b70cde70-9897-4b6a-a9ec-6708ff1e5ab2"/><filter id="bdd629a4-d762-4268-ade2-dfe2aa060cc4" x="8.11897" y="7.31974" width="12.27875" height="6.38476" filterUnits="userSpaceOnUse" color-interpolation-filters="sRGB"><feFlood flood-color="#fff" result="bg"/><feBlend in="SourceGraphic" in2="bg"/></filter><mask id="ac2711ab-ac1d-41e0-b1a6-bd51435b6b5a" x="8.11897" y="7.31974" width="12.27875" height="6.38476" maskUnits="userSpaceOnUse"><g style="mask:url(#a8db0871-29d1-4218-81b1-8c65cc70e769);filter:url(#bdd629a4-d762-4268-ade2-dfe2aa060cc4)"><rect x="8.11897" y="7.31974" width="12.27875" height="6.38476" style="mix-blend-mode:multiply;fill:url(#bbad4c78-05f0-4f55-94a9-43c79fe2a901)"/></g></mask><linearGradient id="b57e0f23-cbd8-40e0-9490-3768e52c6aff" x1="14.25835" y1="-15.82377" x2="14.25835" y2="19.19761" xlink:href="#ac469d29-1409-4a07-8995-e4b25ab16c71"/><filter id="bae47457-c053-4640-8d7f-898e72ed33cc" x="8.11897" y="-8202.99114" width="5.86522" height="32766" filterUnits="userSpaceOnUse" color-interpolation-filters="sRGB"><feFlood flood-color="#fff" result="bg"/><feBlend in="SourceGraphic" in2="bg"/></filter><mask id="b03507cb-0f58-4846-8cd8-1be8f03b36c5" x="8.11897" y="-8202.99114" width="5.86522" height="32766" maskUnits="userSpaceOnUse"><g style="filter:url(#bae47457-c053-4640-8d7f-898e72ed33cc)"/></mask><linearGradient id="bdb8060f-cf51-491c-ae48-578fe844dfa0" x1="11.05158" y1="-21.13885" x2="11.05158" y2="3.14273" xlink:href="#b70cde70-9897-4b6a-a9ec-6708ff1e5ab2"/><filter id="b918f907-3cd2-4c45-9e3f-fd39179f1af4" x="8.11897" y="22.66629" width="5.86522" height="4.07382" filterUnits="userSpaceOnUse" color-interpolation-filters="sRGB"><feFlood flood-color="#fff" result="bg"/><feBlend in="SourceGraphic" in2="bg"/></filter><mask id="a6acfbfb-0265-4549-831d-8ff8a307bfe5" x="8.11897" y="22.66629" width="5.86522" height="4.07382" maskUnits="userSpaceOnUse"><g style="mask:url(#b03507cb-0f58-4846-8cd8-1be8f03b36c5);filter:url(#b918f907-3cd2-4c45-9e3f-fd39179f1af4)"><rect x="8.11897" y="22.66629" width="5.86522" height="4.07382" style="mix-blend-mode:multiply;fill:url(#bdb8060f-cf51-491c-ae48-578fe844dfa0)"/></g></mask><linearGradient id="e78299cf-0c9e-4ec1-9462-c7e8112ee721" x1="11.05158" y1="-21.13885" x2="11.05158" y2="3.14273" xlink:href="#ac469d29-1409-4a07-8995-e4b25ab16c71"/><filter id="a70117cc-a47b-4549-ba7f-8da40874a87e" x="14.52166" y="-8202.99114" width="5.86522" height="32766" filterUnits="userSpaceOnUse" color-interpolation-filters="sRGB"><feFlood flood-color="#fff" result="bg"/><feBlend in="SourceGraphic" in2="bg"/></filter><mask id="b808803e-1861-4c42-b8b5-3cb02b8d14d6" x="14.52166" y="-8202.99114" width="5.86522" height="32766" maskUnits="userSpaceOnUse"><g style="filter:url(#a70117cc-a47b-4549-ba7f-8da40874a87e)"/></mask><linearGradient id="ae2a8d55-634e-438c-aedf-5d8a8fbfe993" x1="17.45426" y1="-21.13885" x2="17.45426" y2="3.14273" xlink:href="#b70cde70-9897-4b6a-a9ec-6708ff1e5ab2"/><filter id="b5a63015-7828-49ed-a25f-0823a55c0788" x="14.52166" y="22.66629" width="5.86522" height="4.07382" filterUnits="userSpaceOnUse" color-interpolation-filters="sRGB"><feFlood flood-color="#fff" result="bg"/><feBlend in="SourceGraphic" in2="bg"/></filter><mask id="b44597f9-d758-422f-a6f3-b67081049746" x="14.52166" y="22.66629" width="5.86522" height="4.07382" maskUnits="userSpaceOnUse"><g style="mask:url(#b808803e-1861-4c42-b8b5-3cb02b8d14d6);filter:url(#b5a63015-7828-49ed-a25f-0823a55c0788)"><rect x="14.52166" y="22.66629" width="5.86522" height="4.07382" style="mix-blend-mode:multiply;fill:url(#ae2a8d55-634e-438c-aedf-5d8a8fbfe993)"/></g></mask><linearGradient id="b3e88ce1-5a4e-4601-a6b1-38ef181ef3d8" x1="17.45426" y1="-21.13885" x2="17.45426" y2="3.14273" xlink:href="#ac469d29-1409-4a07-8995-e4b25ab16c71"/><filter id="ab6fa6ed-6695-4325-91b6-7e4edc91c023" x="1.41486" y="-8202.99114" width="1.8684" height="32766" filterUnits="userSpaceOnUse" color-interpolation-filters="sRGB"><feFlood flood-color="#fff" result="bg"/><feBlend in="SourceGraphic" in2="bg"/></filter><mask id="e6ca712f-dfec-43a0-b349-43fe609117c7" x="1.41486" y="-8202.99114" width="1.8684" height="32766" maskUnits="userSpaceOnUse"><g style="filter:url(#ab6fa6ed-6695-4325-91b6-7e4edc91c023)"/></mask><linearGradient id="ae6aa569-9fe6-476d-87e1-8d9eb8b2d373" x1="-12.08677" y1="8.75006" x2="3.60387" y2="8.75006" xlink:href="#b70cde70-9897-4b6a-a9ec-6708ff1e5ab2"/><filter id="ab624abf-821f-409e-94cc-316379dfb37b" x="1.41486" y="13.51541" width="1.8684" height="3.4336" filterUnits="userSpaceOnUse" color-interpolation-filters="sRGB"><feFlood flood-color="#fff" result="bg"/><feBlend in="SourceGraphic" in2="bg"/></filter><mask id="eb022987-aa07-435d-a9aa-2e078d00dc44" x="1.41486" y="13.51541" width="1.8684" height="3.4336" maskUnits="userSpaceOnUse"><g style="mask:url(#e6ca712f-dfec-43a0-b349-43fe609117c7);filter:url(#ab624abf-821f-409e-94cc-316379dfb37b)"><rect x="1.41486" y="13.51541" width="1.8684" height="3.4336" style="mix-blend-mode:multiply;fill:url(#ae6aa569-9fe6-476d-87e1-8d9eb8b2d373)"/></g></mask><linearGradient id="e0b9ea24-4827-4ecc-a604-6c66b638b579" x1="-12.08677" y1="8.75006" x2="3.60387" y2="8.75006" xlink:href="#ac469d29-1409-4a07-8995-e4b25ab16c71"/><filter id="be65f22c-d141-4562-be70-0f36efcb297f" x="6.346" y="-8202.99114" width="6.38476" height="32766" filterUnits="userSpaceOnUse" color-interpolation-filters="sRGB"><feFlood flood-color="#fff" result="bg"/><feBlend in="SourceGraphic" in2="bg"/></filter><mask id="b92cf7f0-f889-4ecb-984a-417cc5c62eec" x="6.346" y="-8202.99114" width="6.38476" height="32766" maskUnits="userSpaceOnUse"><g style="filter:url(#be65f22c-d141-4562-be70-0f36efcb297f)"/></mask><linearGradient id="a0ce945f-d021-46ac-b89b-8d0572e68c44" x1="38.83231" y1="8.75019" x2="3.81093" y2="8.75019" xlink:href="#b70cde70-9897-4b6a-a9ec-6708ff1e5ab2"/><filter id="ac62b4c0-0ca5-4b80-9d32-c0e70c3560de" x="6.346" y="9.09271" width="6.38476" height="12.27876" filterUnits="userSpaceOnUse" color-interpolation-filters="sRGB"><feFlood flood-color="#fff" result="bg"/><feBlend in="SourceGraphic" in2="bg"/></filter><mask id="b1f655bd-ca11-4073-8f15-782b9a1f39ca" x="6.346" y="9.09271" width="6.38476" height="12.27876" maskUnits="userSpaceOnUse"><g style="mask:url(#b92cf7f0-f889-4ecb-984a-417cc5c62eec);filter:url(#ac62b4c0-0ca5-4b80-9d32-c0e70c3560de)"><rect x="6.346" y="9.09271" width="6.38476" height="12.27876" style="mix-blend-mode:multiply;fill:url(#a0ce945f-d021-46ac-b89b-8d0572e68c44)"/></g></mask><linearGradient id="a61d9528-0593-4ff3-994d-d4943bc1a625" x1="38.83231" y1="8.75019" x2="3.81093" y2="8.75019" xlink:href="#ac469d29-1409-4a07-8995-e4b25ab16c71"/><filter id="edaf9566-5a65-4757-8290-ea31f02b7951" x="2.75058" y="-8202.99114" width="4.07356" height="32766" filterUnits="userSpaceOnUse" color-interpolation-filters="sRGB"><feFlood flood-color="#fff" result="bg"/><feBlend in="SourceGraphic" in2="bg"/></filter><mask id="aa2e04fd-92ec-47cf-98cd-346bc16f7640" x="2.75058" y="-8202.99114" width="4.07356" height="32766" maskUnits="userSpaceOnUse"><g style="filter:url(#edaf9566-5a65-4757-8290-ea31f02b7951)"/></mask><linearGradient id="b16a5158-f40c-4175-97c1-e3acf4a53a74" x1="-15.63044" y1="11.95696" x2="8.65114" y2="11.95696" xlink:href="#b70cde70-9897-4b6a-a9ec-6708ff1e5ab2"/><filter id="f0c3edcf-b5ef-499c-b54f-c02721d1a41f" x="2.75058" y="9.09271" width="4.07356" height="5.86522" filterUnits="userSpaceOnUse" color-interpolation-filters="sRGB"><feFlood flood-color="#fff" result="bg"/><feBlend in="SourceGraphic" in2="bg"/></filter><mask id="ae59fded-5be1-43cc-b86e-33c435b95d71" x="2.75058" y="9.09271" width="4.07356" height="5.86522" maskUnits="userSpaceOnUse"><g style="mask:url(#aa2e04fd-92ec-47cf-98cd-346bc16f7640);filter:url(#f0c3edcf-b5ef-499c-b54f-c02721d1a41f)"><rect x="2.75058" y="9.09271" width="4.07356" height="5.86522" style="mix-blend-mode:multiply;fill:url(#b16a5158-f40c-4175-97c1-e3acf4a53a74)"/></g></mask><linearGradient id="ac4ce496-7e98-4e1c-acf4-f1d6559e3993" x1="-15.63044" y1="11.95696" x2="8.65114" y2="11.95696" xlink:href="#ac469d29-1409-4a07-8995-e4b25ab16c71"/><linearGradient id="ae84db36-ccdc-41fb-ab58-b4c6d84297c1" x1="-15.63044" y1="5.55415" x2="8.65114" y2="5.55415" xlink:href="#b70cde70-9897-4b6a-a9ec-6708ff1e5ab2"/><filter id="bdcf2e4e-480f-4e88-ad95-3039ca1174b6" x="2.75058" y="15.49564" width="4.07356" height="5.86496" filterUnits="userSpaceOnUse" color-interpolation-filters="sRGB"><feFlood flood-color="#fff" result="bg"/><feBlend in="SourceGraphic" in2="bg"/></filter><mask id="a1bb2f19-b0e0-4f30-b087-6c40d02b2429" x="2.75058" y="15.49564" width="4.07356" height="5.86496" maskUnits="userSpaceOnUse"><g style="mask:url(#aa2e04fd-92ec-47cf-98cd-346bc16f7640);filter:url(#bdcf2e4e-480f-4e88-ad95-3039ca1174b6)"><rect x="2.75058" y="15.49564" width="4.07356" height="5.86496" style="mix-blend-mode:multiply;fill:url(#ae84db36-ccdc-41fb-ab58-b4c6d84297c1)"/></g></mask><linearGradient id="b9f7a2b2-b060-4864-a73c-8dc29e2cc41f" x1="-15.63044" y1="5.55415" x2="8.65114" y2="5.55415" xlink:href="#ac469d29-1409-4a07-8995-e4b25ab16c71"/><filter id="fe51234c-b2c9-4df6-8554-2b3602b89214" x="14.53276" y="-8202.99114" width="5.86496" height="32766" filterUnits="userSpaceOnUse" color-interpolation-filters="sRGB"><feFlood flood-color="#fff" result="bg"/><feBlend in="SourceGraphic" in2="bg"/></filter><mask id="aa7821fe-c0ff-4e7b-8b5c-95c8388dccfd" x="14.53276" y="-8202.99114" width="5.86496" height="32766" maskUnits="userSpaceOnUse"><g style="filter:url(#fe51234c-b2c9-4df6-8554-2b3602b89214)"/></mask><linearGradient id="bf7f4d8b-8974-4847-baca-0f3aeec094c0" x1="17.46524" y1="38.63898" x2="17.46524" y2="14.3574" xlink:href="#b70cde70-9897-4b6a-a9ec-6708ff1e5ab2"/><filter id="bbe17bc7-e2e8-4bee-b4cb-9957bacd2e5e" x="14.53276" y="3.72432" width="5.86496" height="4.07382" filterUnits="userSpaceOnUse" color-interpolation-filters="sRGB"><feFlood flood-color="#fff" result="bg"/><feBlend in="SourceGraphic" in2="bg"/></filter><mask id="fb6551d3-4540-490b-95d0-a4b4b9e39499" x="14.53276" y="3.72432" width="5.86496" height="4.07382" maskUnits="userSpaceOnUse"><g style="mask:url(#aa7821fe-c0ff-4e7b-8b5c-95c8388dccfd);filter:url(#bbe17bc7-e2e8-4bee-b4cb-9957bacd2e5e)"><rect x="14.53276" y="3.72432" width="5.86496" height="4.07382" style="mix-blend-mode:multiply;fill:url(#bf7f4d8b-8974-4847-baca-0f3aeec094c0)"/></g></mask><linearGradient id="ea2509a4-2d9e-4357-836d-83efc2fce14f" x1="17.46524" y1="38.63898" x2="17.46524" y2="14.3574" xlink:href="#ac469d29-1409-4a07-8995-e4b25ab16c71"/><filter id="ea1c28dd-4fd3-4880-b96a-d2340a7c5a53" x="8.13008" y="3.72432" width="5.86496" height="4.07382" filterUnits="userSpaceOnUse" color-interpolation-filters="sRGB"><feFlood flood-color="#fff" result="bg"/><feBlend in="SourceGraphic" in2="bg"/></filter><mask id="e81c69bf-5431-47ca-a3bb-43ea2b92183a" x="8.13008" y="3.72432" width="5.86496" height="4.07382" maskUnits="userSpaceOnUse"><g style="mask:url(#afcd95b3-2633-4912-9a3c-6fc181469b5b);filter:url(#ea1c28dd-4fd3-4880-b96a-d2340a7c5a53)"><rect x="8.13008" y="3.72432" width="5.86496" height="4.07382" style="mix-blend-mode:multiply;fill:url(#a8817d55-9902-4362-8dcb-1396a1771e82)"/></g></mask><linearGradient id="b3540abc-5cbe-4934-ba48-4f1bb957f8b5" x1="11.06256" y1="38.63898" x2="11.06256" y2="14.3574" xlink:href="#ac469d29-1409-4a07-8995-e4b25ab16c71"/><mask id="f86b636a-9596-4ffd-8960-7a0ea64bbfe0" x="11.12682" y="0" width="3.4336" height="1.8684" maskUnits="userSpaceOnUse"><g transform="translate(-1.41486 -2.38859)"><g id="eaa748f7-f268-4255-890f-e638516311a0" data-name="id0"><g style="mask:url(#e331cd6e-0221-41d4-ae98-46625ea01b18)"><rect x="12.54168" y="2.38859" width="3.4336" height="1.8684" style="fill:url(#ac469d29-1409-4a07-8995-e4b25ab16c71)"/></g></g></g></mask><mask id="bec9887b-abe0-4407-a989-a724c5159ce0" x="6.70411" y="4.93114" width="12.27875" height="6.38476" maskUnits="userSpaceOnUse"><g transform="translate(-1.41486 -2.38859)"><g id="f5403a97-c44d-4c88-9b84-015f3f77b99e" data-name="id2"><g style="mask:url(#ac2711ab-ac1d-41e0-b1a6-bd51435b6b5a)"><rect x="8.11897" y="7.31974" width="12.27875" height="6.38476" style="fill:url(#b57e0f23-cbd8-40e0-9490-3768e52c6aff)"/></g></g></g></mask><mask id="af2fdc61-a998-4a74-b0d7-ea842f4def0b" x="13.11791" y="1.33572" width="5.86496" height="4.07382" maskUnits="userSpaceOnUse"><g transform="translate(-1.41486 -2.38859)"><g id="a17bb889-1e2b-45bc-8db0-6e1eb83ad233" data-name="id4"><g style="mask:url(#fb6551d3-4540-490b-95d0-a4b4b9e39499)"><rect x="14.53276" y="3.72432" width="5.86496" height="4.07382" style="fill:url(#ea2509a4-2d9e-4357-836d-83efc2fce14f)"/></g></g></g></mask><mask id="b34dbe2a-ec0d-4574-a895-aee1f06f7328" x="6.71522" y="1.33572" width="5.86496" height="4.07382" maskUnits="userSpaceOnUse"><g transform="translate(-1.41486 -2.38859)"><g id="a8e2f724-db0a-4174-ad73-3eabc6ebaf34" data-name="id6"><g style="mask:url(#e81c69bf-5431-47ca-a3bb-43ea2b92183a)"><rect x="8.13008" y="3.72432" width="5.86496" height="4.07382" style="fill:url(#b3540abc-5cbe-4934-ba48-4f1bb957f8b5)"/></g></g></g></mask><mask id="bb584cca-ab9a-46ab-b6d9-f7ecb36b54ad" x="23.81859" y="11.12682" width="1.86865" height="3.4336" maskUnits="userSpaceOnUse"><g transform="translate(-1.41486 -2.38859)"><g id="b61537fb-9002-4a32-a5f0-5a704238b562" data-name="id8"><g style="mask:url(#b83624e2-643c-4f69-a1b7-a6d7cd5ae705)"><rect x="25.23344" y="13.51541" width="1.86865" height="3.4336" style="fill:url(#fb4ccea3-a441-44a6-b0de-076754571244)"/></g></g></g></mask><mask id="f6dbbd6b-6a7f-4981-8ac6-1741614501f8" x="14.37133" y="6.70437" width="6.38476" height="12.27851" maskUnits="userSpaceOnUse"><g transform="translate(-1.41486 -2.38859)"><g id="e7415cf5-3a72-4dda-b949-b9782125102b" data-name="id10"><g style="mask:url(#bd8b9869-8479-4b8e-bb15-6eed68eed7d2)"><rect x="15.78619" y="9.09296" width="6.38476" height="12.27851" style="fill:url(#b2c2ff08-ae46-4f30-b6c3-7ee0b09c00e8)"/></g></g></g></mask><mask id="f83ca4e6-bc1a-48ff-9484-dbcc20f02e48" x="20.27769" y="13.11791" width="4.07382" height="5.86497" maskUnits="userSpaceOnUse"><g transform="translate(-1.41486 -2.38859)"><g id="f2f0738c-e036-47ac-bad4-2af800d12224" data-name="id12"><g style="mask:url(#b42aded4-5a23-44bd-bca3-073fd108bb24)"><rect x="21.69255" y="15.5065" width="4.07382" height="5.86497" style="fill:url(#a2ac62a9-c850-4167-a501-b7ff8dd937e5)"/></g></g></g></mask><mask id="a558deff-ebb9-469f-b957-7f1a212b1daf" x="20.27769" y="6.71522" width="4.07382" height="5.86496" maskUnits="userSpaceOnUse"><g transform="translate(-1.41486 -2.38859)"><g id="fd5ceb47-39c1-46d9-ae88-024be89ed1c1" data-name="id14"><g style="mask:url(#b62366e9-8516-487c-acb8-6ecbde06eebe)"><rect x="21.69255" y="9.10381" width="4.07382" height="5.86496" style="fill:url(#a7e4e258-8f95-436d-91fc-87ac5f77b5dd)"/></g></g></g></mask><mask id="f88bbdd6-2d0a-4efb-942d-b91dd7ef7d5c" x="11.12682" y="23.81859" width="3.4336" height="1.86865" maskUnits="userSpaceOnUse"><g transform="translate(-1.41486 -2.38859)"><g id="aea0b1ef-624e-4742-b7a7-78fa9a67af5a" data-name="id16"><g style="mask:url(#a62bbee0-7718-4338-878e-292d0cc21e30)"><rect x="12.54168" y="26.20718" width="3.4336" height="1.86865" style="fill:url(#bd45392c-b684-42ce-b737-dfd4a682f72c)"/></g></g></g></mask><mask id="e436142e-97d9-41cc-ac37-16d576853767" x="6.70411" y="14.37133" width="12.27875" height="6.38476" maskUnits="userSpaceOnUse"><g transform="translate(-1.41486 -2.38859)"><g id="b43a3095-f8fc-410d-9db4-b9ec50a4fcce" data-name="id18"><g style="mask:url(#a8b27460-4ebf-4f27-b257-deb608f09ba7)"><rect x="8.11897" y="16.75992" width="12.27875" height="6.38476" style="fill:url(#ae611afd-d032-44e1-a074-9c27d8957361)"/></g></g></g></mask><mask id="b0c045dd-d7a4-493f-971b-d4471d36040f" x="6.70411" y="20.27769" width="5.86522" height="4.07382" maskUnits="userSpaceOnUse"><g transform="translate(-1.41486 -2.38859)"><g id="aa837644-9e30-4188-95cf-281f2226737b" data-name="id20"><g style="mask:url(#a6acfbfb-0265-4549-831d-8ff8a307bfe5)"><rect x="8.11897" y="22.66629" width="5.86522" height="4.07382" style="fill:url(#e78299cf-0c9e-4ec1-9462-c7e8112ee721)"/></g></g></g></mask><mask id="b3f9849e-8bff-4678-b384-34a7afbdd878" x="13.1068" y="20.27769" width="5.86522" height="4.07382" maskUnits="userSpaceOnUse"><g transform="translate(-1.41486 -2.38859)"><g id="a71eb116-c6c1-414a-bb84-0cc7d4b9001d" data-name="id22"><g style="mask:url(#b44597f9-d758-422f-a6f3-b67081049746)"><rect x="14.52166" y="22.66629" width="5.86522" height="4.07382" style="fill:url(#b3e88ce1-5a4e-4601-a6b1-38ef181ef3d8)"/></g></g></g></mask><mask id="ad44040d-2fe2-4e9d-bdbb-ed04536fcaa6" x="0" y="11.12682" width="1.8684" height="3.4336" maskUnits="userSpaceOnUse"><g transform="translate(-1.41486 -2.38859)"><g id="f8eafc1f-09ca-499b-b864-98bf3c910535" data-name="id24"><g style="mask:url(#eb022987-aa07-435d-a9aa-2e078d00dc44)"><rect x="1.41486" y="13.51541" width="1.8684" height="3.4336" style="fill:url(#e0b9ea24-4827-4ecc-a604-6c66b638b579)"/></g></g></g></mask><mask id="a5f74ced-0c02-4ee4-865e-06a24a9a22be" x="4.93114" y="6.70411" width="6.38476" height="12.27876" maskUnits="userSpaceOnUse"><g transform="translate(-1.41486 -2.38859)"><g id="f74e8af9-3fa2-4180-ae69-59c571849622" data-name="id26"><g style="mask:url(#b1f655bd-ca11-4073-8f15-782b9a1f39ca)"><rect x="6.346" y="9.09271" width="6.38476" height="12.27876" style="fill:url(#a61d9528-0593-4ff3-994d-d4943bc1a625)"/></g></g></g></mask><mask id="ec377570-8d23-4d6f-88ad-978c00abbc62" x="1.33572" y="6.70411" width="4.07356" height="5.86522" maskUnits="userSpaceOnUse"><g transform="translate(-1.41486 -2.38859)"><g id="ff4a14b5-6114-4a84-8a11-90caee9377f2" data-name="id28"><g style="mask:url(#ae59fded-5be1-43cc-b86e-33c435b95d71)"><rect x="2.75058" y="9.09271" width="4.07356" height="5.86522" style="fill:url(#ac4ce496-7e98-4e1c-acf4-f1d6559e3993)"/></g></g></g></mask><mask id="e6173d1d-e59d-41ec-9013-23c28bd62fc6" x="1.33572" y="13.10705" width="4.07356" height="5.86496" maskUnits="userSpaceOnUse"><g transform="translate(-1.41486 -2.38859)"><g id="e5fc44de-7281-4d18-b66a-37b456a352d3" data-name="id30"><g style="mask:url(#a1bb2f19-b0e0-4f30-b087-6c40d02b2429)"><rect x="2.75058" y="15.49564" width="4.07356" height="5.86496" style="fill:url(#b9f7a2b2-b060-4864-a73c-8dc29e2cc41f)"/></g></g></g></mask></defs><text transform="translate(28.70387 11.6875)" style="font-size:11.197164535522461px;fill:#bd8b44;font-family:Montserrat-Black, Montserrat;font-weight:800;letter-spacing:0.20002033203712247em">FROST</text><text transform="translate(32.70387 22.6875)" style="font-size:11.197164535522461px;fill:#bd8b44;font-family:Montserrat-Black, Montserrat;font-weight:800;letter-spacing:0.19997662130022625em">TREK</text><circle cx="12.84349" cy="12.84349" r="1.30442" style="fill:#bd8b44"/><path d="M16.84649,10.76646l-1.6677-1.6677a2.18,2.18,0,0,1,0-3.06729l2.2809-2.2809,2.28115,2.2809a2.18,2.18,0,0,1,0,3.06729L15.792,13.04762a2.18,2.18,0,0,1-3.06729,0L8.7761,9.09876a2.18,2.18,0,0,1,0-3.06729l2.2809-2.2809,2.28116,2.2809a2.18,2.18,0,0,1,0,3.06729l-1.6677,1.6677,1.6677,1.6677a1.30953,1.30953,0,0,0,1.84062,0l1.6677-1.6677ZM15.792,8.48556l1.6677,1.6677,1.6677-1.6677a1.30953,1.30953,0,0,0,0-1.84063l-1.6677-1.6677L15.792,6.64493A1.30955,1.30955,0,0,0,15.792,8.48556Zm-6.40268,0,1.6677,1.6677,1.66769-1.6677a1.30907,1.30907,0,0,0,0-1.84063L11.057,4.97723l-1.6677,1.6677A1.30955,1.30955,0,0,0,9.38931,8.48556Z" transform="translate(-1.41486 -2.38859)" style="fill:#bd8b44"/><circle cx="12.84349" cy="1.71693" r="1.71693" style="fill:#bd8b44"/><g style="mask:url(#f86b636a-9596-4ffd-8960-7a0ea64bbfe0)"><path d="M12.54824,4.257q-.00643-.075-.00656-.15147a1.7168,1.7168,0,1,1,3.43359,0q0,.07648-.00681.15147a1.71684,1.71684,0,0,0-3.42022,0Z" transform="translate(-1.41486 -2.38859)" style="fill:#bd8b44"/></g><g style="mask:url(#bec9887b-abe0-4407-a989-a724c5159ce0)"><path d="M15.792,12.60936a1.93355,1.93355,0,0,1-3.06729,0L8.7761,8.66051A2.15392,2.15392,0,0,1,8.15633,7.346,2.16835,2.16835,0,0,0,8.7761,9.09876l3.9486,3.94886a2.18,2.18,0,0,0,3.06729,0l3.94886-3.94886A2.16915,2.16915,0,0,0,20.36062,7.346a2.1545,2.1545,0,0,1-.61977,1.31452Z" transform="translate(-1.41486 -2.38859)" style="fill:#bd8b44"/></g><g style="mask:url(#af2fdc61-a998-4a74-b0d7-ea842f4def0b)"><path d="M17.45969,4.16358l2.28116,2.28116a2.15574,2.15574,0,0,1,.621,1.32714,2.169,2.169,0,0,0-.621-1.74041l-2.28116-2.2809-2.2809,2.2809A2.1545,2.1545,0,0,0,14.559,7.346q.01023.10376.03055.20651a2.14581,2.14581,0,0,1,.58922-1.10776Z" transform="translate(-1.41486 -2.38859)" style="fill:#bd8b44"/></g><path d="M19.12739,6.64493l-1.6677-1.6677L15.792,6.64493a1.30955,1.30955,0,0,0,0,1.84063l1.6677,1.6677,1.6677-1.6677a1.30953,1.30953,0,0,0,0-1.84063ZM17.45969,5.2822l1.51522,1.51521a1.09364,1.09364,0,0,1,0,1.53567L17.45969,9.8483,15.94448,8.33308a1.09411,1.09411,0,0,1,0-1.53567L17.45969,5.2822Z" transform="translate(-1.41486 -2.38859)" style="fill:#bd8b44"/><path d="M12.7247,6.64493,11.057,4.97723l-1.6677,1.6677a1.30955,1.30955,0,0,0,0,1.84063l1.6677,1.6677,1.66769-1.6677A1.30907,1.30907,0,0,0,12.7247,6.64493ZM11.057,5.2822l1.51521,1.51521a1.09364,1.09364,0,0,1,0,1.53567L11.057,9.8483,9.54179,8.33308a1.09412,1.09412,0,0,1,0-1.53567L11.057,5.2822Z" transform="translate(-1.41486 -2.38859)" style="fill:#bd8b44"/><g style="mask:url(#b34dbe2a-ec0d-4574-a895-aee1f06f7328)"><path d="M11.057,4.16358l2.28115,2.28116a2.15568,2.15568,0,0,1,.621,1.32714,2.169,2.169,0,0,0-.621-1.74041L11.057,3.75057,8.7761,6.03147A2.15456,2.15456,0,0,0,8.15633,7.346q.01023.10376.03055.20651a2.14582,2.14582,0,0,1,.58923-1.10776L11.057,4.16358Z" transform="translate(-1.41486 -2.38859)" style="fill:#bd8b44"/></g><path d="M18.72422,17.82022l1.66745-1.6677a2.18034,2.18034,0,0,1,3.06754,0l2.28091,2.28091-2.28091,2.28115a2.18033,2.18033,0,0,1-3.06754,0l-3.9486-3.9486a2.18033,2.18033,0,0,1,0-3.06754l3.9486-3.9486a2.18033,2.18033,0,0,1,3.06754,0l2.28091,2.2809-2.28091,2.28115a2.18033,2.18033,0,0,1-3.06754,0L18.72422,12.6442l-1.66794,1.66769a1.30953,1.30953,0,0,0,0,1.84063l1.66794,1.6677Zm2.28091-1.05449-1.6677,1.6677,1.6677,1.66769a1.30905,1.30905,0,0,0,1.84062,0l1.6677-1.66769-1.6677-1.6677a1.30953,1.30953,0,0,0-1.84063,0Zm0-6.40269-1.6677,1.6677,1.6677,1.6677a1.30953,1.30953,0,0,0,1.84062,0l1.6677-1.6677-1.6677-1.6677a1.30955,1.30955,0,0,0-1.84063,0Z" transform="translate(-1.41486 -2.38859)" style="fill:#bd8b44"/><path d="M23.66824,15.23208A1.71693,1.71693,0,1,1,25.38517,16.949,1.71691,1.71691,0,0,1,23.66824,15.23208Z" transform="translate(-1.41486 -2.38859)" style="fill:#bd8b44"/><g style="mask:url(#bb584cca-ab9a-46ab-b6d9-f7ecb36b54ad)"><path d="M25.23344,13.522c.05-.00429.10073-.00656.15173-.00656a1.7168,1.7168,0,1,1,0,3.4336c-.051,0-.10174-.00227-.15173-.00682a1.71682,1.71682,0,0,0,0-3.42022Z" transform="translate(-1.41486 -2.38859)" style="fill:#bd8b44"/></g><g style="mask:url(#f6dbbd6b-6a7f-4981-8ac6-1741614501f8)"><path d="M16.88132,16.766a1.93381,1.93381,0,0,1,0-3.06754l3.94886-3.9486a2.15379,2.15379,0,0,1,1.31451-.61977,2.16912,2.16912,0,0,0-1.753.61977l-3.9486,3.9486a2.18033,2.18033,0,0,0,0,3.06754l3.9486,3.9486a2.17,2.17,0,0,0,1.753.61977,2.15384,2.15384,0,0,1-1.31452-.61977L16.88132,16.766Z" transform="translate(-1.41486 -2.38859)" style="fill:#bd8b44"/></g><g style="mask:url(#f83ca4e6-bc1a-48ff-9484-dbcc20f02e48)"><path d="M25.3271,18.43343,23.046,20.71458a2.15571,2.15571,0,0,1-1.32714.621,2.16894,2.16894,0,0,0,1.7404-.621l2.2809-2.28115-2.2809-2.2809a2.15445,2.15445,0,0,0-1.31452-.61977c-.06917.00681-.13834.01691-.20675.03054a2.14563,2.14563,0,0,1,1.108.58923l2.28116,2.2809Z" transform="translate(-1.41486 -2.38859)" style="fill:#bd8b44"/></g><path d="M22.84575,20.10112l1.6677-1.66769-1.6677-1.6677a1.30953,1.30953,0,0,0-1.84063,0l-1.66769,1.6677,1.6677,1.66769A1.30905,1.30905,0,0,0,22.84575,20.10112Zm1.36274-1.66769-1.51522,1.51521a1.09363,1.09363,0,0,1-1.53566,0l-1.51522-1.51522,1.51522-1.51521a1.09409,1.09409,0,0,1,1.53566,0l1.51522,1.51521Z" transform="translate(-1.41486 -2.38859)" style="fill:#bd8b44"/><path d="M22.84575,13.69844l1.6677-1.6677-1.6677-1.6677a1.30955,1.30955,0,0,0-1.84063,0l-1.66769,1.6677,1.6677,1.6677A1.30953,1.30953,0,0,0,22.84575,13.69844Zm1.36274-1.6677L22.69327,13.546a1.09365,1.09365,0,0,1-1.53566,0l-1.51522-1.51522,1.51522-1.51522a1.09411,1.09411,0,0,1,1.53566,0Z" transform="translate(-1.41486 -2.38859)" style="fill:#bd8b44"/><g style="mask:url(#a558deff-ebb9-469f-b957-7f1a212b1daf)"><path d="M25.3271,12.03074,23.046,14.3119a2.15581,2.15581,0,0,1-1.32714.621,2.16894,2.16894,0,0,0,1.7404-.621l2.2809-2.28116-2.2809-2.2809a2.15445,2.15445,0,0,0-1.31452-.61977c-.06917.00682-.13834.01691-.20675.03055a2.14554,2.14554,0,0,1,1.108.58922l2.28116,2.2809Z" transform="translate(-1.41486 -2.38859)" style="fill:#bd8b44"/></g><path d="M11.67046,19.698l1.6677,1.66745a2.18033,2.18033,0,0,1,0,3.06754L11.057,26.71385,8.7761,24.433a2.18034,2.18034,0,0,1,0-3.06754l3.9486-3.94861a2.18,2.18,0,0,1,3.06729,0l3.94886,3.94861a2.18033,2.18033,0,0,1,0,3.06754L17.46,26.71385,15.17879,24.433a2.18033,2.18033,0,0,1,0-3.06754l1.6677-1.66745-1.6677-1.6677a1.30908,1.30908,0,0,0-1.84063,0l-1.6677,1.6677Zm1.05424,2.2809L11.057,20.31117l-1.6677,1.66769a1.30955,1.30955,0,0,0,0,1.84063l1.6677,1.6677,1.66769-1.6677A1.30953,1.30953,0,0,0,12.7247,21.97886Zm6.40269,0-1.6677-1.66769L15.792,21.97886a1.30955,1.30955,0,0,0,0,1.84063l1.6677,1.6677,1.6677-1.6677a1.30953,1.30953,0,0,0,0-1.84063Z" transform="translate(-1.41486 -2.38859)" style="fill:#bd8b44"/><path d="M14.25835,24.642a1.71693,1.71693,0,1,1-1.71667,1.71692A1.71694,1.71694,0,0,1,14.25835,24.642Z" transform="translate(-1.41486 -2.38859)" style="fill:#bd8b44"/><g style="mask:url(#f88bbdd6-2d0a-4efb-942d-b91dd7ef7d5c)"><path d="M15.96846,26.20718q.00681.07536.00681.15172a1.7168,1.7168,0,1,1-3.43359,0q0-.07648.00656-.15172a1.71682,1.71682,0,0,0,3.42022,0Z" transform="translate(-1.41486 -2.38859)" style="fill:#bd8b44"/></g><g style="mask:url(#e436142e-97d9-41cc-ac37-16d576853767)"><path d="M12.7247,17.85506a1.93355,1.93355,0,0,1,3.06729,0l3.94886,3.94885a2.15531,2.15531,0,0,1,.61977,1.31452,2.17,2.17,0,0,0-.61977-1.753L15.792,17.4168a2.18,2.18,0,0,0-3.06729,0L8.7761,21.36541a2.16912,2.16912,0,0,0-.61977,1.753,2.154,2.154,0,0,1,.61977-1.31452l3.9486-3.94885Z" transform="translate(-1.41486 -2.38859)" style="fill:#bd8b44"/></g><g style="mask:url(#b0c045dd-d7a4-493f-971b-d4471d36040f)"><path d="M11.057,26.30084,8.7761,24.01968a2.15581,2.15581,0,0,1-.621-1.32714,2.169,2.169,0,0,0,.621,1.74041l2.28091,2.2809,2.28115-2.2809a2.15648,2.15648,0,0,0,.61977-1.31452c-.00681-.06942-.01717-.13834-.03055-.2065a2.14756,2.14756,0,0,1-.58922,1.10775L11.057,26.30084Z" transform="translate(-1.41486 -2.38859)" style="fill:#bd8b44"/></g><path d="M9.38931,23.81949l1.6677,1.6677,1.66769-1.6677a1.30953,1.30953,0,0,0,0-1.84063L11.057,20.31117l-1.6677,1.66769a1.30955,1.30955,0,0,0,0,1.84063Zm1.6677,1.36273L9.54179,23.667a1.09412,1.09412,0,0,1,0-1.53567L11.057,20.61612l1.51521,1.51522a1.09364,1.09364,0,0,1,0,1.53567Z" transform="translate(-1.41486 -2.38859)" style="fill:#bd8b44"/><path d="M15.792,23.81949l1.6677,1.6677,1.6677-1.6677a1.30953,1.30953,0,0,0,0-1.84063l-1.6677-1.66769L15.792,21.97886a1.30955,1.30955,0,0,0,0,1.84063Zm1.6677,1.36273L15.94448,23.667a1.09411,1.09411,0,0,1,0-1.53567l1.51521-1.51522,1.51522,1.51522a1.09364,1.09364,0,0,1,0,1.53567Z" transform="translate(-1.41486 -2.38859)" style="fill:#bd8b44"/><g style="mask:url(#b3f9849e-8bff-4678-b384-34a7afbdd878)"><path d="M17.45994,26.30084l-2.28115-2.28116a2.15436,2.15436,0,0,1-.621-1.32714,2.169,2.169,0,0,0,.621,1.74041l2.28115,2.2809,2.2809-2.2809a2.15654,2.15654,0,0,0,.61978-1.31452c-.00682-.06942-.01717-.13834-.03055-.2065a2.14771,2.14771,0,0,1-.58922,1.10775L17.46,26.30084Z" transform="translate(-1.41486 -2.38859)" style="fill:#bd8b44"/></g><path d="M9.79273,12.6442,8.125,14.3119a2.18,2.18,0,0,1-3.06729,0l-2.2809-2.28116,2.2809-2.2809a2.18,2.18,0,0,1,3.06729,0l3.94885,3.9486a2.18033,2.18033,0,0,1,0,3.06754L8.125,20.71458a2.18,2.18,0,0,1-3.06729,0l-2.2809-2.2809,2.2809-2.28115a2.18,2.18,0,0,1,3.06729,0l1.6677,1.66769,1.66769-1.66769a1.30953,1.30953,0,0,0,0-1.84063L9.79273,12.6442ZM7.51182,13.69844l1.6677-1.6677L7.51182,10.363a1.30953,1.30953,0,0,0-1.84062,0l-1.6677,1.6677,1.6677,1.6677A1.30953,1.30953,0,0,0,7.51182,13.69844Zm0,6.40268,1.6677-1.66769-1.6677-1.6677a1.30952,1.30952,0,0,0-1.84062,0l-1.6677,1.6677,1.6677,1.66769A1.30952,1.30952,0,0,0,7.51182,20.10112Z" transform="translate(-1.41486 -2.38859)" style="fill:#bd8b44"/><path d="M4.84846,15.23208a1.7168,1.7168,0,1,1-1.71668-1.71667A1.71675,1.71675,0,0,1,4.84846,15.23208Z" transform="translate(-1.41486 -2.38859)" style="fill:#bd8b44"/><g style="mask:url(#ad44040d-2fe2-4e9d-bdbb-ed04536fcaa6)"><path d="M3.28325,16.94219q-.075.00682-.15147.00682a1.7168,1.7168,0,1,1,0-3.4336q.0765,0,.15147.00656a1.71682,1.71682,0,0,0,0,3.42022Z" transform="translate(-1.41486 -2.38859)" style="fill:#bd8b44"/></g><g style="mask:url(#a5f74ced-0c02-4ee4-865e-06a24a9a22be)"><path d="M11.63563,13.69844a1.93381,1.93381,0,0,1,0,3.06754l-3.94886,3.9486a2.15442,2.15442,0,0,1-1.31451.61977A2.16915,2.16915,0,0,0,8.125,20.71458l3.94885-3.9486a2.18033,2.18033,0,0,0,0-3.06754L8.125,9.74984a2.16832,2.16832,0,0,0-1.75277-.61977,2.15442,2.15442,0,0,1,1.31451.61977Z" transform="translate(-1.41486 -2.38859)" style="fill:#bd8b44"/></g><g style="mask:url(#ec377570-8d23-4d6f-88ad-978c00abbc62)"><path d="M3.18985,12.03074l2.2809-2.2809a2.157,2.157,0,0,1,1.32714-.621,2.16872,2.16872,0,0,0-1.74015.621l-2.2809,2.2809,2.2809,2.28116a2.15456,2.15456,0,0,0,1.31452.61977c.06917-.00682.13809-.01717.2065-.03055a2.14758,2.14758,0,0,1-1.108-.58923l-2.2809-2.28115Z" transform="translate(-1.41486 -2.38859)" style="fill:#bd8b44"/></g><path d="M5.6712,10.363l-1.6677,1.6677,1.6677,1.6677a1.30953,1.30953,0,0,0,1.84062,0l1.6677-1.6677L7.51182,10.363A1.30953,1.30953,0,0,0,5.6712,10.363Zm-1.36274,1.6677,1.51522-1.51522a1.09411,1.09411,0,0,1,1.53566,0l1.51522,1.51522L7.35934,13.546a1.09365,1.09365,0,0,1-1.53566,0Z" transform="translate(-1.41486 -2.38859)" style="fill:#bd8b44"/><path d="M5.6712,16.76573l-1.6677,1.6677,1.6677,1.66769a1.30952,1.30952,0,0,0,1.84062,0l1.6677-1.66769-1.6677-1.6677A1.30952,1.30952,0,0,0,5.6712,16.76573Zm-1.36274,1.6677,1.51522-1.51522a1.09409,1.09409,0,0,1,1.53566,0l1.51522,1.51522L7.35934,19.94864a1.09363,1.09363,0,0,1-1.53566,0L4.30846,18.43342Z" transform="translate(-1.41486 -2.38859)" style="fill:#bd8b44"/><g style="mask:url(#e6173d1d-e59d-41ec-9013-23c28bd62fc6)"><path d="M3.18985,18.43368l2.2809-2.28116a2.157,2.157,0,0,1,1.32714-.621,2.16875,2.16875,0,0,0-1.74015.621l-2.2809,2.28116,2.2809,2.2809a2.15445,2.15445,0,0,0,1.31452.61977c.06917-.00681.13809-.01717.2065-.03054a2.14763,2.14763,0,0,1-1.108-.58922l-2.2809-2.28091Z" transform="translate(-1.41486 -2.38859)" style="fill:#bd8b44"/></g></svg>